<mxfile host="app.diagrams.net" modified="2023-10-03T22:13:33.018Z" agent="Mozilla/5.0 (Windows NT 10.0; Win64; x64) AppleWebKit/537.36 (KHTML, like Gecko) Chrome/117.0.0.0 Safari/537.36 Edg/117.0.2045.47" etag="KeY1oTlBYW7oOhX3To2z" version="22.0.2" type="github">
  <diagram name="Página-1" id="aM4MhW02JEYaPlnq2MRT">
    <mxGraphModel dx="1221" dy="535" grid="1" gridSize="10" guides="1" tooltips="1" connect="1" arrows="1" fold="1" page="1" pageScale="1" pageWidth="827" pageHeight="1169" math="0" shadow="0">
      <root>
        <mxCell id="0" />
        <mxCell id="1" parent="0" />
        <mxCell id="E4uRbbj3UAPOfc1vnMzM-9" style="edgeStyle=orthogonalEdgeStyle;rounded=0;orthogonalLoop=1;jettySize=auto;html=1;" edge="1" parent="1" source="E4uRbbj3UAPOfc1vnMzM-1" target="E4uRbbj3UAPOfc1vnMzM-4">
          <mxGeometry relative="1" as="geometry" />
        </mxCell>
        <mxCell id="E4uRbbj3UAPOfc1vnMzM-1" value="Estudiante" style="shape=umlActor;verticalLabelPosition=bottom;verticalAlign=top;html=1;outlineConnect=0;" vertex="1" parent="1">
          <mxGeometry x="70" y="150" width="30" height="60" as="geometry" />
        </mxCell>
        <mxCell id="E4uRbbj3UAPOfc1vnMzM-10" style="edgeStyle=orthogonalEdgeStyle;rounded=0;orthogonalLoop=1;jettySize=auto;html=1;" edge="1" parent="1" source="E4uRbbj3UAPOfc1vnMzM-2" target="E4uRbbj3UAPOfc1vnMzM-5">
          <mxGeometry relative="1" as="geometry" />
        </mxCell>
        <mxCell id="E4uRbbj3UAPOfc1vnMzM-2" value="Maestro" style="shape=umlActor;verticalLabelPosition=bottom;verticalAlign=top;html=1;outlineConnect=0;" vertex="1" parent="1">
          <mxGeometry x="70" y="280" width="30" height="60" as="geometry" />
        </mxCell>
        <mxCell id="E4uRbbj3UAPOfc1vnMzM-11" style="edgeStyle=orthogonalEdgeStyle;rounded=0;orthogonalLoop=1;jettySize=auto;html=1;" edge="1" parent="1" source="E4uRbbj3UAPOfc1vnMzM-3" target="E4uRbbj3UAPOfc1vnMzM-7">
          <mxGeometry relative="1" as="geometry" />
        </mxCell>
        <mxCell id="E4uRbbj3UAPOfc1vnMzM-3" value="Padre" style="shape=umlActor;verticalLabelPosition=bottom;verticalAlign=top;html=1;outlineConnect=0;" vertex="1" parent="1">
          <mxGeometry x="70" y="400" width="30" height="60" as="geometry" />
        </mxCell>
        <mxCell id="E4uRbbj3UAPOfc1vnMzM-4" value="Visualizar historia académica&amp;nbsp;&lt;br&gt;del mismo" style="ellipse;whiteSpace=wrap;html=1;" vertex="1" parent="1">
          <mxGeometry x="270" y="140" width="120" height="80" as="geometry" />
        </mxCell>
        <mxCell id="E4uRbbj3UAPOfc1vnMzM-5" value="Visualizar historia académica&amp;nbsp;&lt;br&gt;de todos los estudiantes" style="ellipse;whiteSpace=wrap;html=1;" vertex="1" parent="1">
          <mxGeometry x="260" y="265" width="140" height="90" as="geometry" />
        </mxCell>
        <mxCell id="E4uRbbj3UAPOfc1vnMzM-7" value="Visualizar historia académica de los hijos asociados" style="ellipse;whiteSpace=wrap;html=1;" vertex="1" parent="1">
          <mxGeometry x="270" y="390" width="120" height="80" as="geometry" />
        </mxCell>
      </root>
    </mxGraphModel>
  </diagram>
</mxfile>
